<svg width="462" height="183" viewBox="0 0 462 183" fill="none" xmlns="http://www.w3.org/2000/svg">
<path fill-rule="evenodd" clip-rule="evenodd" d="M116.675 59.1075H75.4658V41.625H134.157V100.316H116.675V59.1075Z" fill="#4A6DFF"/>
<path fill-rule="evenodd" clip-rule="evenodd" d="M84.4852 93.8946C81.8156 92.1109 78.677 91.1588 75.4662 91.1588V73.6763C82.1347 73.6763 88.6534 75.6537 94.198 79.3585C99.7426 83.0633 104.064 88.329 106.616 94.4899C109.168 100.651 109.836 107.43 108.535 113.97C107.234 120.511 104.023 126.518 99.3072 131.234C94.5919 135.949 88.5842 139.16 82.0439 140.461C75.5036 141.762 68.7244 141.094 62.5635 138.542C56.4027 135.99 51.137 131.669 47.4322 126.124C43.7274 120.58 41.75 114.061 41.75 107.392L59.2325 107.392C59.2325 110.603 60.1846 113.742 61.9684 116.411C63.7521 119.081 66.2875 121.162 69.2538 122.391C72.2202 123.619 75.4842 123.941 78.6333 123.314C81.7823 122.688 84.6749 121.142 86.9452 118.872C89.2155 116.601 90.7617 113.709 91.3881 110.56C92.0144 107.411 91.693 104.146 90.4643 101.18C89.2356 98.2138 87.1549 95.6784 84.4852 93.8946Z" fill="#2EB9FF"/>
<path d="M161.63 127.413V54.0645H188.769C194.637 54.0645 199.492 55.0424 203.334 56.9984C207.176 58.9543 210.04 61.6438 211.926 65.0667C213.812 68.4896 214.755 72.3317 214.755 76.5929C214.755 80.6445 213.847 84.3818 212.031 87.8047C210.214 91.1577 207.385 93.8821 203.543 95.9778C199.701 98.0036 194.776 99.0165 188.769 99.0165H175.042V127.413H161.63ZM175.042 88.119H187.93C192.611 88.119 195.964 87.1061 197.99 85.0803C200.085 82.9846 201.133 80.1555 201.133 76.5929C201.133 72.9604 200.085 70.1312 197.99 68.1054C195.964 66.0098 192.611 64.9619 187.93 64.9619H175.042V88.119Z" fill="white"/>
<path d="M242.316 128.67C237.077 128.67 232.432 127.552 228.38 125.317C224.328 123.082 221.15 119.938 218.845 115.887C216.54 111.835 215.387 107.155 215.387 101.846C215.387 96.4668 216.505 91.6817 218.74 87.4903C221.045 83.299 224.189 80.0507 228.171 77.7455C232.222 75.3704 236.972 74.1828 242.421 74.1828C247.521 74.1828 252.026 75.3005 255.938 77.5359C259.85 79.7713 262.889 82.8449 265.054 86.7568C267.29 90.5989 268.407 94.895 268.407 99.6452C268.407 100.414 268.372 101.217 268.303 102.055C268.303 102.893 268.268 103.767 268.198 104.675H228.694C228.974 108.726 230.371 111.905 232.886 114.21C235.47 116.515 238.579 117.668 242.212 117.668C244.936 117.668 247.206 117.074 249.022 115.887C250.909 114.629 252.306 113.023 253.214 111.067H266.836C265.858 114.35 264.216 117.354 261.911 120.078C259.675 122.732 256.881 124.828 253.528 126.365C250.245 127.902 246.508 128.67 242.316 128.67ZM242.421 85.0803C239.138 85.0803 236.239 86.0234 233.724 87.9095C231.209 89.7257 229.603 92.5199 228.904 96.2921H254.786C254.576 92.8692 253.319 90.1448 251.013 88.119C248.708 86.0932 245.844 85.0803 242.421 85.0803Z" fill="white"/>
<path d="M274.449 127.413V75.4402H286.289L287.337 84.242C288.944 81.1684 291.249 78.7235 294.253 76.9072C297.326 75.091 300.924 74.1828 305.045 74.1828C311.472 74.1828 316.467 76.2087 320.029 80.2603C323.592 84.3119 325.373 90.2496 325.373 98.0734V127.413H311.961V99.3308C311.961 94.8601 311.053 91.4372 309.237 89.0621C307.421 86.687 304.591 85.4994 300.749 85.4994C296.977 85.4994 293.869 86.8267 291.424 89.4812C289.049 92.1357 287.861 95.8381 287.861 100.588V127.413H274.449Z" fill="white"/>
<path d="M356.117 127.413C350.668 127.413 346.302 126.086 343.019 123.431C339.736 120.776 338.094 116.061 338.094 109.285V86.6521H329.187V75.4402H338.094L339.666 61.5041H351.506V75.4402H365.547V86.6521H351.506V109.39C351.506 111.905 352.03 113.651 353.078 114.629C354.196 115.537 356.082 115.991 358.736 115.991H365.233V127.413H356.117Z" fill="white"/>
<path d="M389.742 128.67C385.271 128.67 381.603 127.972 378.739 126.575C375.875 125.108 373.745 123.187 372.347 120.811C370.95 118.436 370.252 115.817 370.252 112.953C370.252 108.133 372.138 104.221 375.91 101.217C379.682 98.2132 385.341 96.7113 392.885 96.7113H406.088V95.4539C406.088 91.8912 405.075 89.2716 403.049 87.5951C401.023 85.9186 398.508 85.0803 395.505 85.0803C392.78 85.0803 390.405 85.7439 388.379 87.0712C386.354 88.3286 385.096 90.2147 384.607 92.7295H371.509C371.858 88.9573 373.116 85.6741 375.281 82.8799C377.517 80.0856 380.381 77.955 383.874 76.4881C387.366 74.9513 391.278 74.1828 395.609 74.1828C403.014 74.1828 408.847 76.034 413.108 79.7364C417.369 83.4387 419.5 88.6779 419.5 95.4539V127.413H408.079L406.821 119.03C405.284 121.824 403.119 124.13 400.325 125.946C397.6 127.762 394.073 128.67 389.742 128.67ZM392.78 118.192C396.622 118.192 399.591 116.934 401.687 114.42C403.852 111.905 405.215 108.796 405.773 105.094H394.352C390.789 105.094 388.24 105.758 386.703 107.085C385.166 108.342 384.398 109.914 384.398 111.8C384.398 113.826 385.166 115.398 386.703 116.515C388.24 117.633 390.265 118.192 392.78 118.192Z" fill="white"/>
</svg>
