<svg width="462" height="184" viewBox="0 0 462 184" fill="none" xmlns="http://www.w3.org/2000/svg">
<path fill-rule="evenodd" clip-rule="evenodd" d="M116.675 59.8414H75.4658V42.3589H134.157V101.05H116.675V59.8414Z" fill="black"/>
<path fill-rule="evenodd" clip-rule="evenodd" d="M84.4852 94.6285C81.8156 92.8447 78.677 91.8926 75.4662 91.8926V74.4102C82.1347 74.4102 88.6534 76.3876 94.198 80.0924C99.7426 83.7972 104.064 89.0629 106.616 95.2238C109.168 101.385 109.836 108.164 108.535 114.704C107.234 121.244 104.023 127.252 99.3072 131.967C94.5919 136.683 88.5842 139.894 82.0439 141.195C75.5036 142.496 68.7244 141.828 62.5635 139.276C56.4027 136.724 51.137 132.403 47.4322 126.858C43.7274 121.313 41.75 114.795 41.75 108.126L59.2325 108.126C59.2325 111.337 60.1846 114.476 61.9684 117.145C63.7521 119.815 66.2875 121.896 69.2538 123.124C72.2202 124.353 75.4842 124.675 78.6333 124.048C81.7823 123.422 84.6749 121.876 86.9452 119.605C89.2155 117.335 90.7617 114.442 91.3881 111.293C92.0144 108.144 91.693 104.88 90.4643 101.914C89.2356 98.9477 87.1549 96.4123 84.4852 94.6285Z" fill="black"/>
<path d="M161.63 128.147V54.7983H188.769C194.637 54.7983 199.492 55.7763 203.334 57.7323C207.176 59.6882 210.04 62.3777 211.926 65.8006C213.812 69.2235 214.755 73.0656 214.755 77.3268C214.755 81.3784 213.847 85.1156 212.031 88.5386C210.214 91.8916 207.385 94.616 203.543 96.7117C199.701 98.7375 194.776 99.7504 188.769 99.7504H175.042V128.147H161.63ZM175.042 88.8529H187.93C192.611 88.8529 195.964 87.84 197.99 85.8142C200.085 83.7185 201.133 80.8894 201.133 77.3268C201.133 73.6943 200.085 70.8651 197.99 68.8393C195.964 66.7436 192.611 65.6958 187.93 65.6958H175.042V88.8529Z" fill="black"/>
<path d="M242.316 129.404C237.077 129.404 232.432 128.286 228.38 126.051C224.328 123.816 221.15 120.672 218.845 116.62C216.54 112.569 215.387 107.889 215.387 102.58C215.387 97.2007 216.505 92.4155 218.74 88.2242C221.045 84.0329 224.189 80.7846 228.171 78.4794C232.222 76.1043 236.972 74.9167 242.421 74.9167C247.521 74.9167 252.026 76.0344 255.938 78.2698C259.85 80.5052 262.889 83.5788 265.054 87.4907C267.29 91.3328 268.407 95.6289 268.407 100.379C268.407 101.147 268.372 101.951 268.303 102.789C268.303 103.627 268.268 104.501 268.198 105.409H228.694C228.974 109.46 230.371 112.639 232.886 114.944C235.47 117.249 238.579 118.402 242.212 118.402C244.936 118.402 247.206 117.808 249.022 116.62C250.909 115.363 252.306 113.756 253.214 111.8H266.836C265.858 115.084 264.216 118.087 261.911 120.812C259.675 123.466 256.881 125.562 253.528 127.099C250.245 128.636 246.508 129.404 242.316 129.404ZM242.421 85.8142C239.138 85.8142 236.239 86.7572 233.724 88.6433C231.209 90.4596 229.603 93.2538 228.904 97.026H254.786C254.576 93.6031 253.319 90.8787 251.013 88.8529C248.708 86.8271 245.844 85.8142 242.421 85.8142Z" fill="black"/>
<path d="M274.449 128.147V76.1741H286.289L287.337 84.9759C288.944 81.9023 291.249 79.4573 294.253 77.6411C297.326 75.8249 300.924 74.9167 305.045 74.9167C311.472 74.9167 316.467 76.9425 320.029 80.9942C323.592 85.0458 325.373 90.9835 325.373 98.8073V128.147H311.961V100.065C311.961 95.594 311.053 92.1711 309.237 89.796C307.421 87.4209 304.591 86.2333 300.749 86.2333C296.977 86.2333 293.869 87.5606 291.424 90.2151C289.049 92.8696 287.861 96.572 287.861 101.322V128.147H274.449Z" fill="black"/>
<path d="M356.117 128.147C350.668 128.147 346.302 126.819 343.019 124.165C339.736 121.51 338.094 116.795 338.094 110.019V87.3859H329.187V76.1741H338.094L339.666 62.238H351.506V76.1741H365.547V87.3859H351.506V110.124C351.506 112.639 352.03 114.385 353.078 115.363C354.196 116.271 356.082 116.725 358.736 116.725H365.233V128.147H356.117Z" fill="black"/>
<path d="M389.742 129.404C385.271 129.404 381.603 128.705 378.739 127.308C375.875 125.841 373.745 123.92 372.347 121.545C370.95 119.17 370.252 116.551 370.252 113.687C370.252 108.867 372.138 104.955 375.91 101.951C379.682 98.947 385.341 97.4451 392.885 97.4451H406.088V96.1877C406.088 92.6251 405.075 90.0055 403.049 88.329C401.023 86.6525 398.508 85.8142 395.505 85.8142C392.78 85.8142 390.405 86.4778 388.379 87.8051C386.354 89.0625 385.096 90.9486 384.607 93.4634H371.509C371.858 89.6912 373.116 86.408 375.281 83.6138C377.517 80.8195 380.381 78.6889 383.874 77.222C387.366 75.6851 391.278 74.9167 395.609 74.9167C403.014 74.9167 408.847 76.7679 413.108 80.4703C417.369 84.1726 419.5 89.4118 419.5 96.1877V128.147H408.079L406.821 119.764C405.284 122.558 403.119 124.863 400.325 126.68C397.6 128.496 394.073 129.404 389.742 129.404ZM392.78 118.926C396.622 118.926 399.591 117.668 401.687 115.154C403.852 112.639 405.215 109.53 405.773 105.828H394.352C390.789 105.828 388.24 106.491 386.703 107.819C385.166 109.076 384.398 110.648 384.398 112.534C384.398 114.56 385.166 116.132 386.703 117.249C388.24 118.367 390.265 118.926 392.78 118.926Z" fill="black"/>
</svg>
